HIERARCHY
ROOT Hips
{
	OFFSET -0.001795 -0.223333 0.028219
	CHANNELS 6 Xposition Yposition Zposition Zrotation Yrotation Xrotation 
	JOINT LeftUpLeg
	{
		OFFSET 0.069520 -0.091406 -0.006815
		CHANNELS 3 Zrotation Yrotation Xrotation
		JOINT LeftLeg
		{
			OFFSET 0.034277 -0.375199 -0.004496
			CHANNELS 3 Zrotation Yrotation Xrotation
			JOINT LeftFoot
			{
				OFFSET -0.013596 -0.397961 -0.043693
				CHANNELS 3 Zrotation Yrotation Xrotation
				JOINT LeftToe
				{
					OFFSET 0.026358 -0.055791 0.119288
					CHANNELS 3 Zrotation Yrotation Xrotation
					End Site
					{
						OFFSET 0.000000 0.000000 0.000000
					}
				}
			}
		}
	}
	JOINT RightUpLeg
	{
		OFFSET -0.067670 -0.090522 -0.004320
		CHANNELS 3 Zrotation Yrotation Xrotation
		JOINT RightLeg
		{
			OFFSET -0.038290 -0.382569 -0.008850
			CHANNELS 3 Zrotation Yrotation Xrotation
			JOINT RightFoot
			{
				OFFSET 0.015774 -0.398415 -0.042312
				CHANNELS 3 Zrotation Yrotation Xrotation
				JOINT RightToe
				{
					OFFSET -0.025372 -0.048144 0.123348
					CHANNELS 3 Zrotation Yrotation Xrotation
					End Site
					{
						OFFSET 0.000000 0.000000 0.000000
					}
				}
			}
		}
	}
	JOINT Spine
	{
		OFFSET -0.002533 0.108963 -0.026696
		CHANNELS 3 Zrotation Yrotation Xrotation
		JOINT Spine1
		{
			OFFSET 0.005487 0.135180 0.001092
			CHANNELS 3 Zrotation Yrotation Xrotation
			JOINT Spine2
			{
				OFFSET 0.001457 0.052922 0.025425
				CHANNELS 3 Zrotation Yrotation Xrotation
				JOINT Neck
				{
					OFFSET -0.002778 0.213870 -0.042857
					CHANNELS 3 Zrotation Yrotation Xrotation
					JOINT Head
					{
						OFFSET 0.005152 0.064970 0.051349
						CHANNELS 3 Zrotation Yrotation Xrotation
						End Site
						{
							OFFSET 0.000000 0.000000 0.000000
						}
					}
				}
				JOINT LeftShoulder
				{
					OFFSET 0.078845 0.121749 -0.034090
					CHANNELS 3 Zrotation Yrotation Xrotation
					JOINT LeftArm
					{
						OFFSET 0.090977 0.030469 -0.008868
						CHANNELS 3 Zrotation Yrotation Xrotation
						JOINT LeftForeArm
						{
							OFFSET 0.259612 -0.012772 -0.027456
							CHANNELS 3 Zrotation Yrotation Xrotation
							JOINT LeftHand
							{
								OFFSET 0.249234 0.008986 -0.001171
								CHANNELS 3 Zrotation Yrotation Xrotation
								End Site
								{
									OFFSET 0.000000 0.000000 0.000000
								}
							}
						}
					}
				}
				JOINT RightShoulder
				{
					OFFSET -0.081759 0.118833 -0.038615
					CHANNELS 3 Zrotation Yrotation Xrotation
					JOINT RightArm
					{
						OFFSET -0.096012 0.032551 -0.009143
						CHANNELS 3 Zrotation Yrotation Xrotation
						JOINT RightForeArm
						{
							OFFSET -0.253742 -0.013329 -0.021401
							CHANNELS 3 Zrotation Yrotation Xrotation
							JOINT RightHand
							{
								OFFSET -0.255298 0.007772 -0.005559
								CHANNELS 3 Zrotation Yrotation Xrotation
								End Site
								{
									OFFSET 0.000000 0.000000 0.000000
								}
							}
						}
					}
				}
			}
		}
	}
}
MOTION
Frames: 14
Frame Time: 0.050000
0.000000 0.947744 0.000000 1.813014 21.254764 4.319114 5.071291 -0.332365 0.002515 -5.327170 0.246808 -2.128874 13.379065 24.745686 9.902482 0.000000 0.000000 0.000000 -5.267941 0.275058 -14.328171 0.707305 -0.083522 6.168041 7.615732 12.289178 12.166387 0.000000 0.000000 0.000000 9.400741 -5.451174 27.736905 -3.619686 2.042917 -15.449350 -1.578596 -2.600415 21.091061 14.054671 -7.388199 -17.393474 0.000000 0.000000 0.000000 -22.639426 -37.520442 17.948452 -31.196832 -30.227351 2.806695 8.372178 -35.734904 -1.546240 0.000000 0.000000 0.000000 26.990237 25.194224 17.845245 26.669147 37.500300 2.611890 -10.051680 35.184844 -1.450997 0.000000 0.000000 0.000000 
-0.001170 0.947297 -0.000288 2.850926 21.728653 5.817155 3.360274 -0.268138 -1.215837 -3.573347 0.181225 -3.657476 13.396021 24.988411 12.541344 0.000000 0.000000 0.000000 -6.923867 -0.034619 -15.452924 2.152125 -0.382735 5.897963 7.055069 11.147977 12.403335 0.000000 0.000000 0.000000 8.930711 -5.137315 26.846558 -2.909480 1.827883 -15.073028 -1.866399 -2.418787 20.861203 15.964778 -9.252037 -15.501252 0.000000 0.000000 0.000000 -22.176592 -37.910799 17.936086 -30.735793 -30.979398 2.923446 9.955113 -36.892818 -2.152064 0.000000 0.000000 0.000000 29.379434 23.896535 18.077616 25.339035 37.310646 2.050464 -10.493316 37.133051 -1.615062 0.000000 0.000000 0.000000 
-0.001910 0.947554 -0.000594 2.579665 21.117022 5.798855 3.540759 -0.297510 -1.653938 -3.864813 0.200604 -3.132885 14.416254 26.269279 13.038522 0.000000 0.000000 0.000000 -6.401470 0.075011 -16.043363 2.187490 -0.402633 6.865394 6.643110 10.599390 11.746887 0.000000 0.000000 0.000000 9.419808 -5.307559 27.113742 -3.951129 2.118773 -16.117193 -0.916421 -3.413202 20.612441 15.036194 -9.168557 -14.029017 0.000000 0.000000 0.000000 -23.782288 -37.630783 18.729239 -28.411232 -32.939505 2.872790 9.346720 -37.056995 -1.866996 0.000000 0.000000 0.000000 27.760589 23.260150 16.570546 26.308086 37.905669 2.542917 -8.170499 38.241632 -0.886269 0.000000 0.000000 0.000000 
-0.002492 0.948052 -0.000743 2.559074 21.599711 5.735341 3.289713 -0.270584 -1.389745 -3.029415 0.174179 -3.736187 13.876841 25.617664 13.303645 0.000000 0.000000 0.000000 -6.425884 0.052032 -15.822096 2.642744 -0.498113 6.426032 6.079434 9.355433 12.362469 0.000000 0.000000 0.000000 10.154565 -5.446921 26.584494 -4.122360 2.175484 -15.376769 -1.338446 -3.879073 20.344404 16.041611 -9.983110 -13.805690 0.000000 0.000000 0.000000 -24.118606 -38.977301 19.762411 -27.024244 -33.303983 2.726639 10.208434 -38.559051 -2.243508 0.000000 0.000000 0.000000 27.301004 23.221631 16.313737 25.505770 38.901124 2.609775 -9.514368 38.336255 -1.326729 0.000000 0.000000 0.000000 
-0.002756 0.947371 -0.000663 2.650169 21.581595 5.593294 3.150830 -0.273203 -1.623223 -3.144626 0.179841 -3.285538 14.486211 26.346948 13.632915 0.000000 0.000000 0.000000 -6.389357 0.063945 -15.702996 2.588061 -0.492650 6.688236 5.802488 9.078941 11.737525 0.000000 0.000000 0.000000 10.202098 -5.571130 27.022055 -3.657241 2.034544 -16.461957 -2.091209 -4.148513 20.714165 15.920743 -10.066596 -13.363479 0.000000 0.000000 0.000000 -24.121667 -39.908056 20.438156 -25.353963 -34.485533 2.611446 10.608232 -39.565131 -2.443350 0.000000 0.000000 0.000000 26.794479 22.862311 15.849108 25.606912 39.436838 2.757470 -9.635905 38.424869 -1.363377 0.000000 0.000000 0.000000 
-0.002815 0.947324 -0.000375 2.466915 21.468104 5.354705 3.343206 -0.276764 -1.509382 -3.133728 0.181233 -3.310677 14.724783 26.634413 14.045824 0.000000 0.000000 0.000000 -6.257628 0.081369 -16.114996 2.659555 -0.536109 7.663637 5.949735 9.283263 11.827480 0.000000 0.000000 0.000000 10.661336 -5.728331 27.118860 -4.158660 2.171297 -16.704314 -2.074905 -4.667769 20.753243 15.876491 -10.373990 -12.593615 0.000000 0.000000 0.000000 -23.250004 -40.540105 20.784140 -25.009554 -35.861712 2.724178 11.053881 -40.541669 -2.649311 0.000000 0.000000 0.000000 26.971378 23.125563 15.822739 24.436421 39.056980 2.417755 -10.178644 39.050394 -1.609376 0.000000 0.000000 0.000000 
-0.002651 0.946671 0.000148 2.616752 21.107711 5.169870 3.225358 -0.276648 -1.691308 -3.266835 0.191763 -2.380003 15.014065 26.982404 13.904728 0.000000 0.000000 0.000000 -6.411390 0.069242 -16.043920 2.686952 -0.544660 7.957527 6.081313 9.594823 11.549810 0.000000 0.000000 0.000000 10.809634 -5.744611 27.140391 -4.209091 2.177865 -16.802355 -2.260388 -4.950357 20.880080 15.867558 -10.459883 -12.479018 0.000000 0.000000 0.000000 -22.779921 -40.673791 20.855525 -24.489147 -36.885540 2.760861 11.793769 -41.562488 -2.987123 0.000000 0.000000 0.000000 26.884543 23.298333 15.737599 24.204055 39.899369 2.540477 -11.179847 38.624618 -1.928621 0.000000 0.000000 0.000000 
-0.002478 0.946786 0.000660 2.636552 20.521253 4.776921 3.132117 -0.251961 -1.407740 -3.263816 0.198117 -1.913891 15.363143 27.399586 14.098708 0.000000 0.000000 0.000000 -6.346374 0.096384 -16.321011 2.612072 -0.556735 9.172123 6.266064 9.957898 11.318157 0.000000 0.000000 0.000000 10.948998 -5.698231 27.047081 -4.148851 2.163458 -16.378204 -2.488841 -4.691839 20.651874 16.528438 -11.283502 -11.597134 0.000000 0.000000 0.000000 -22.138069 -41.059687 20.889044 -24.163875 -37.457388 2.789148 13.010159 -42.546424 -3.544991 0.000000 0.000000 0.000000 27.518420 23.522175 16.020507 23.277322 40.109997 2.335897 -11.872342 38.182496 -2.154483 0.000000 0.000000 0.000000 
-0.002366 0.946693 0.001365 2.872831 20.159330 4.549605 2.981996 -0.234433 -1.292810 -3.480340 0.210225 -1.313625 15.525525 27.600900 14.059578 0.000000 0.000000 0.000000 -6.385845 0.099175 -16.373998 2.516368 -0.554660 9.963448 6.048393 9.718969 10.787649 0.000000 0.000000 0.000000 11.063687 -5.661392 26.936049 -3.816829 2.071901 -15.919128 -2.893817 -4.397362 20.731420 17.314206 -11.898265 -11.602168 0.000000 0.000000 0.000000 -21.315038 -41.232691 20.661981 -23.842637 -38.379570 2.865972 14.231468 -42.740620 -4.055169 0.000000 0.000000 0.000000 27.355341 23.640395 16.091680 22.762733 41.193217 2.383984 -12.333338 37.056858 -2.239473 0.000000 0.000000 0.000000 
-0.002398 0.946502 0.002308 2.998831 19.729181 4.241004 2.977800 -0.215079 -1.003431 -3.704127 0.224911 -1.154001 15.898743 28.035323 14.577124 0.000000 0.000000 0.000000 -6.546423 0.080821 -16.631711 2.827303 -0.661922 11.011424 5.989830 9.572961 10.703623 0.000000 0.000000 0.000000 11.346664 -5.657656 26.775582 -3.830895 2.075029 -15.580155 -2.851577 -4.455120 20.604735 18.003935 -12.759442 -10.853951 0.000000 0.000000 0.000000 -21.182748 -41.491721 20.863862 -22.974725 -38.526597 2.677452 15.046214 -43.978683 -4.512343 0.000000 0.000000 0.000000 27.326340 23.829394 16.062230 23.029980 41.641783 2.573772 -12.483056 36.598328 -2.271176 0.000000 0.000000 0.000000 
-0.002463 0.946474 0.003294 2.911579 18.956408 3.860253 3.059841 -0.199031 -0.715472 -3.816718 0.238653 -0.714826 16.380854 28.604270 14.879961 0.000000 0.000000 0.000000 -6.310032 0.153115 -16.789662 3.082320 -0.727802 11.570479 5.809110 8.966859 11.123123 0.000000 0.000000 0.000000 11.430467 -5.583149 26.690227 -3.489211 1.964213 -15.221575 -2.729285 -4.468912 20.402958 18.065690 -13.160377 -9.936483 0.000000 0.000000 0.000000 -21.163548 -41.427118 20.933384 -22.415750 -38.655624 2.565070 15.433645 -44.110204 -4.674652 0.000000 0.000000 0.000000 27.566379 24.272879 16.212799 23.447561 41.877140 2.791878 -12.319026 36.335786 -2.231604 0.000000 0.000000 0.000000 
-0.002292 0.946414 0.004188 2.744410 17.959497 3.434121 3.225764 -0.200841 -0.709431 -3.977015 0.254867 0.487211 16.833052 29.168539 14.860154 0.000000 0.000000 0.000000 -6.239236 0.206042 -16.917491 3.338966 -0.779499 11.968187 6.393496 9.599208 11.970082 0.000000 0.000000 0.000000 11.536621 -5.490316 26.581062 -2.910191 1.775094 -14.579667 -2.551483 -4.630803 19.731802 17.717451 -13.319907 -8.681430 0.000000 0.000000 0.000000 -20.150117 -41.009404 20.537054 -22.208063 -38.783587 2.534594 16.185278 -44.608216 -5.025221 0.000000 0.000000 0.000000 27.683530 24.566052 16.106711 24.422353 42.470766 3.296151 -11.306514 35.684109 -1.909690 0.000000 0.000000 0.000000 
-0.001725 0.946676 0.004685 2.669021 16.772473 3.129741 3.178212 -0.199719 -0.883072 -4.029674 0.262308 1.867705 17.328941 29.800533 14.981206 0.000000 0.000000 0.000000 -6.243981 0.252015 -17.381338 3.768376 -0.878966 12.608565 6.771858 9.636540 13.128722 0.000000 0.000000 0.000000 11.758041 -5.433431 26.516587 -2.413686 1.598175 -14.716721 -2.333389 -4.634349 19.758812 17.965675 -13.717179 -8.239234 0.000000 0.000000 0.000000 -18.999161 -40.873198 20.225124 -21.928259 -39.050814 2.476517 16.728182 -44.233405 -5.184552 0.000000 0.000000 0.000000 27.604461 24.707691 15.908696 25.875090 43.067178 3.905431 -10.542646 35.549997 -1.681092 0.000000 0.000000 0.000000 
-0.000587 0.946716 0.004707 2.574443 15.480755 2.754230 3.262320 -0.206188 -1.088452 -4.171164 0.272681 3.463161 17.588695 30.176568 15.023917 0.000000 0.000000 0.000000 -6.350936 0.289140 -17.581371 3.942548 -0.898473 13.083573 7.764105 10.907301 13.949964 0.000000 0.000000 0.000000 11.942448 -5.321397 26.317644 -1.744947 1.355054 -14.208437 -1.965846 -4.881870 19.012265 17.034542 -13.442620 -6.761023 0.000000 0.000000 0.000000 -17.604103 -40.343384 19.693368 -21.545159 -39.071788 2.392217 16.564090 -44.216886 -5.087265 0.000000 0.000000 0.000000 27.389077 25.007545 15.624408 27.186006 43.793081 4.612577 -9.822830 35.346271 -1.481373 0.000000 0.000000 0.000000 
